<mxfile host="65bd71144e">
    <diagram id="WK_Rh4VkrJjEYu3Hsrl9" name="Page-1">
        <mxGraphModel dx="1019" dy="813" grid="1" gridSize="10" guides="1" tooltips="1" connect="1" arrows="1" fold="1" page="1" pageScale="1" pageWidth="827" pageHeight="1169" math="0" shadow="0">
            <root>
                <mxCell id="0"/>
                <mxCell id="1" parent="0"/>
                <mxCell id="37" style="edgeStyle=none;html=1;exitX=1;exitY=0.25;exitDx=0;exitDy=0;entryX=0;entryY=0.25;entryDx=0;entryDy=0;" parent="1" source="18" target="20" edge="1">
                    <mxGeometry relative="1" as="geometry"/>
                </mxCell>
                <mxCell id="48" style="edgeStyle=none;html=1;exitX=1;exitY=0.25;exitDx=0;exitDy=0;entryX=-0.045;entryY=0.35;entryDx=0;entryDy=0;entryPerimeter=0;" parent="1" source="18" target="40" edge="1">
                    <mxGeometry relative="1" as="geometry">
                        <mxPoint x="600" y="380" as="targetPoint"/>
                        <Array as="points"/>
                    </mxGeometry>
                </mxCell>
                <mxCell id="18" value="Chicken (Master Table)" style="swimlane;startSize=40;" parent="1" vertex="1">
                    <mxGeometry x="30" y="80" width="250" height="280" as="geometry"/>
                </mxCell>
                <mxCell id="22" value="" style="line;strokeWidth=4;direction=south;html=1;perimeter=backbonePerimeter;points=[];outlineConnect=0;" parent="18" vertex="1">
                    <mxGeometry x="114" y="40" width="10" height="240" as="geometry"/>
                </mxCell>
                <mxCell id="29" value="Boolean" style="text;html=1;align=center;verticalAlign=middle;resizable=0;points=[];autosize=1;strokeColor=none;fillColor=none;" parent="18" vertex="1">
                    <mxGeometry x="129" y="150" width="60" height="20" as="geometry"/>
                </mxCell>
                <mxCell id="31" value="MediaSet" style="text;html=1;align=center;verticalAlign=middle;resizable=0;points=[];autosize=1;strokeColor=none;fillColor=none;" parent="18" vertex="1">
                    <mxGeometry x="124" y="180" width="70" height="20" as="geometry"/>
                </mxCell>
                <mxCell id="24" value="Text&amp;nbsp; [100]" style="text;html=1;align=center;verticalAlign=middle;resizable=0;points=[];autosize=1;strokeColor=none;fillColor=none;" parent="18" vertex="1">
                    <mxGeometry x="124" y="90" width="70" height="20" as="geometry"/>
                </mxCell>
                <mxCell id="28" value="Blocked" style="text;html=1;align=center;verticalAlign=middle;resizable=0;points=[];autosize=1;strokeColor=none;fillColor=none;" parent="18" vertex="1">
                    <mxGeometry y="150" width="60" height="20" as="geometry"/>
                </mxCell>
                <mxCell id="32" value="Name (Text [100])" style="text;html=1;align=center;verticalAlign=middle;resizable=0;points=[];autosize=1;strokeColor=none;fillColor=none;" parent="18" vertex="1">
                    <mxGeometry x="-1" y="90" width="110" height="20" as="geometry"/>
                </mxCell>
                <mxCell id="23" value="No." style="text;html=1;align=center;verticalAlign=middle;resizable=0;points=[];autosize=1;strokeColor=none;fillColor=none;" parent="18" vertex="1">
                    <mxGeometry x="9" y="60" width="30" height="20" as="geometry"/>
                </mxCell>
                <mxCell id="49" value="Picture" style="text;html=1;align=center;verticalAlign=middle;resizable=0;points=[];autosize=1;strokeColor=none;fillColor=none;" parent="18" vertex="1">
                    <mxGeometry x="5" y="180" width="50" height="20" as="geometry"/>
                </mxCell>
                <mxCell id="33" value="Code [20]" style="text;html=1;align=center;verticalAlign=middle;resizable=0;points=[];autosize=1;strokeColor=none;fillColor=none;" parent="18" vertex="1">
                    <mxGeometry x="124" y="60" width="70" height="20" as="geometry"/>
                </mxCell>
                <mxCell id="65" value="Code [20]" style="text;html=1;align=center;verticalAlign=middle;resizable=0;points=[];autosize=1;strokeColor=none;fillColor=none;" parent="18" vertex="1">
                    <mxGeometry x="124" y="120" width="70" height="20" as="geometry"/>
                </mxCell>
                <mxCell id="64" value="Chicken Type Code" style="text;html=1;align=center;verticalAlign=middle;resizable=0;points=[];autosize=1;strokeColor=none;fillColor=none;" parent="18" vertex="1">
                    <mxGeometry x="-1" y="120" width="120" height="20" as="geometry"/>
                </mxCell>
                <mxCell id="63" value="Date" style="text;html=1;align=center;verticalAlign=middle;resizable=0;points=[];autosize=1;strokeColor=none;fillColor=none;" parent="18" vertex="1">
                    <mxGeometry x="130" y="210" width="40" height="20" as="geometry"/>
                </mxCell>
                <mxCell id="62" value="Last Date Modified" style="text;html=1;align=center;verticalAlign=middle;resizable=0;points=[];autosize=1;strokeColor=none;fillColor=none;" parent="18" vertex="1">
                    <mxGeometry x="-1" y="210" width="120" height="20" as="geometry"/>
                </mxCell>
                <mxCell id="19" value="Eggs Type (Supplemental table)" style="swimlane;startSize=40;" parent="1" vertex="1">
                    <mxGeometry x="500" y="560" width="241" height="200" as="geometry"/>
                </mxCell>
                <mxCell id="39" value="" style="line;strokeWidth=4;direction=south;html=1;perimeter=backbonePerimeter;points=[];outlineConnect=0;" parent="19" vertex="1">
                    <mxGeometry x="140" y="40" width="10" height="160" as="geometry"/>
                </mxCell>
                <mxCell id="42" value="Description (Text[100])" style="text;html=1;align=center;verticalAlign=middle;resizable=0;points=[];autosize=1;strokeColor=none;fillColor=none;" parent="19" vertex="1">
                    <mxGeometry y="100" width="140" height="20" as="geometry"/>
                </mxCell>
                <mxCell id="40" value="Code&amp;nbsp; PK" style="text;html=1;align=center;verticalAlign=middle;resizable=0;points=[];autosize=1;strokeColor=none;fillColor=none;" parent="19" vertex="1">
                    <mxGeometry x="24" y="70" width="70" height="20" as="geometry"/>
                </mxCell>
                <mxCell id="41" value="Code [20]" style="text;html=1;align=center;verticalAlign=middle;resizable=0;points=[];autosize=1;strokeColor=none;fillColor=none;" parent="19" vertex="1">
                    <mxGeometry x="148" y="70" width="70" height="20" as="geometry"/>
                </mxCell>
                <mxCell id="43" value="Text [100]" style="text;html=1;align=center;verticalAlign=middle;resizable=0;points=[];autosize=1;strokeColor=none;fillColor=none;" parent="19" vertex="1">
                    <mxGeometry x="150" y="100" width="70" height="20" as="geometry"/>
                </mxCell>
                <mxCell id="20" value="Chicken Types (Supplemental table)" style="swimlane;" parent="1" vertex="1">
                    <mxGeometry x="481" y="10" width="260" height="200" as="geometry"/>
                </mxCell>
                <mxCell id="25" value="" style="line;strokeWidth=4;direction=south;html=1;perimeter=backbonePerimeter;points=[];outlineConnect=0;" parent="20" vertex="1">
                    <mxGeometry x="125" y="20" width="10" height="180" as="geometry"/>
                </mxCell>
                <mxCell id="26" value="Code" style="text;html=1;align=center;verticalAlign=middle;resizable=0;points=[];autosize=1;strokeColor=none;fillColor=none;" parent="20" vertex="1">
                    <mxGeometry x="10" y="40" width="40" height="20" as="geometry"/>
                </mxCell>
                <mxCell id="27" value="PK" style="text;html=1;align=center;verticalAlign=middle;resizable=0;points=[];autosize=1;strokeColor=none;fillColor=none;" parent="20" vertex="1">
                    <mxGeometry x="90" y="40" width="30" height="20" as="geometry"/>
                </mxCell>
                <mxCell id="34" value="Description" style="text;html=1;align=center;verticalAlign=middle;resizable=0;points=[];autosize=1;strokeColor=none;fillColor=none;" parent="20" vertex="1">
                    <mxGeometry y="70" width="80" height="20" as="geometry"/>
                </mxCell>
                <mxCell id="35" value="(Text[100])" style="text;html=1;align=center;verticalAlign=middle;resizable=0;points=[];autosize=1;strokeColor=none;fillColor=none;" parent="20" vertex="1">
                    <mxGeometry x="146" y="70" width="70" height="20" as="geometry"/>
                </mxCell>
                <mxCell id="66" value="Code [20]" style="text;html=1;align=center;verticalAlign=middle;resizable=0;points=[];autosize=1;strokeColor=none;fillColor=none;" parent="20" vertex="1">
                    <mxGeometry x="150" y="40" width="70" height="20" as="geometry"/>
                </mxCell>
                <mxCell id="68" value="Egg Production Header (Document header)" style="swimlane;fontStyle=0;childLayout=stackLayout;horizontal=1;startSize=30;horizontalStack=0;resizeParent=1;resizeParentMax=0;resizeLast=0;collapsible=1;marginBottom=0;" vertex="1" parent="1">
                    <mxGeometry x="480" y="270" width="310" height="90" as="geometry"/>
                </mxCell>
                <mxCell id="69" value="No, (Code [20]) - PK" style="text;strokeColor=none;fillColor=none;align=left;verticalAlign=middle;spacingLeft=4;spacingRight=4;overflow=hidden;points=[[0,0.5],[1,0.5]];portConstraint=eastwest;rotatable=0;" vertex="1" parent="68">
                    <mxGeometry y="30" width="310" height="30" as="geometry"/>
                </mxCell>
                <mxCell id="70" value="Document Date (Date)" style="text;strokeColor=none;fillColor=none;align=left;verticalAlign=middle;spacingLeft=4;spacingRight=4;overflow=hidden;points=[[0,0.5],[1,0.5]];portConstraint=eastwest;rotatable=0;" vertex="1" parent="68">
                    <mxGeometry y="60" width="310" height="30" as="geometry"/>
                </mxCell>
                <mxCell id="73" value="List" style="swimlane;fontStyle=0;childLayout=stackLayout;horizontal=1;startSize=30;horizontalStack=0;resizeParent=1;resizeParentMax=0;resizeLast=0;collapsible=1;marginBottom=0;" vertex="1" parent="1">
                    <mxGeometry x="30" y="400" width="250" height="240" as="geometry"/>
                </mxCell>
                <mxCell id="74" value="Document No. (Code[20]) - PK" style="text;strokeColor=none;fillColor=none;align=left;verticalAlign=middle;spacingLeft=4;spacingRight=4;overflow=hidden;points=[[0,0.5],[1,0.5]];portConstraint=eastwest;rotatable=0;" vertex="1" parent="73">
                    <mxGeometry y="30" width="250" height="30" as="geometry"/>
                </mxCell>
                <mxCell id="75" value="Line No. (Integer) - PK" style="text;strokeColor=none;fillColor=none;align=left;verticalAlign=middle;spacingLeft=4;spacingRight=4;overflow=hidden;points=[[0,0.5],[1,0.5]];portConstraint=eastwest;rotatable=0;" vertex="1" parent="73">
                    <mxGeometry y="60" width="250" height="30" as="geometry"/>
                </mxCell>
                <mxCell id="76" value="Chicken No. (Code[20])" style="text;strokeColor=none;fillColor=none;align=left;verticalAlign=middle;spacingLeft=4;spacingRight=4;overflow=hidden;points=[[0,0.5],[1,0.5]];portConstraint=eastwest;rotatable=0;" vertex="1" parent="73">
                    <mxGeometry y="90" width="250" height="30" as="geometry"/>
                </mxCell>
                <mxCell id="77" value="Egg Production Date (Date)" style="text;strokeColor=none;fillColor=none;align=left;verticalAlign=middle;spacingLeft=4;spacingRight=4;overflow=hidden;points=[[0,0.5],[1,0.5]];portConstraint=eastwest;rotatable=0;" vertex="1" parent="73">
                    <mxGeometry y="120" width="250" height="30" as="geometry"/>
                </mxCell>
                <mxCell id="78" value="Egg Type Code (Code[20])" style="text;strokeColor=none;fillColor=none;align=left;verticalAlign=middle;spacingLeft=4;spacingRight=4;overflow=hidden;points=[[0,0.5],[1,0.5]];portConstraint=eastwest;rotatable=0;" vertex="1" parent="73">
                    <mxGeometry y="150" width="250" height="30" as="geometry"/>
                </mxCell>
                <mxCell id="79" value="Egg Quantity (Decimal)" style="text;strokeColor=none;fillColor=none;align=left;verticalAlign=middle;spacingLeft=4;spacingRight=4;overflow=hidden;points=[[0,0.5],[1,0.5]];portConstraint=eastwest;rotatable=0;" vertex="1" parent="73">
                    <mxGeometry y="180" width="250" height="30" as="geometry"/>
                </mxCell>
                <mxCell id="80" value="Cicken Description (Text[100])" style="text;strokeColor=none;fillColor=none;align=left;verticalAlign=middle;spacingLeft=4;spacingRight=4;overflow=hidden;points=[[0,0.5],[1,0.5]];portConstraint=eastwest;rotatable=0;" vertex="1" parent="73">
                    <mxGeometry y="210" width="250" height="30" as="geometry"/>
                </mxCell>
                <mxCell id="81" style="edgeStyle=none;html=1;exitX=0;exitY=0.5;exitDx=0;exitDy=0;entryX=1;entryY=0.5;entryDx=0;entryDy=0;" edge="1" parent="1" source="69" target="74">
                    <mxGeometry relative="1" as="geometry"/>
                </mxCell>
                <mxCell id="82" style="edgeStyle=none;html=1;exitX=1;exitY=0.5;exitDx=0;exitDy=0;entryX=1;entryY=0.25;entryDx=0;entryDy=0;" edge="1" parent="1" source="75" target="18">
                    <mxGeometry relative="1" as="geometry">
                        <Array as="points">
                            <mxPoint x="460" y="475"/>
                            <mxPoint x="460" y="150"/>
                        </Array>
                    </mxGeometry>
                </mxCell>
                <mxCell id="83" style="edgeStyle=none;html=1;exitX=1;exitY=0.5;exitDx=0;exitDy=0;entryX=-0.029;entryY=0.85;entryDx=0;entryDy=0;entryPerimeter=0;" edge="1" parent="1" source="78" target="40">
                    <mxGeometry relative="1" as="geometry"/>
                </mxCell>
            </root>
        </mxGraphModel>
    </diagram>
</mxfile>